# xmcd CD database file
#
# Track frame offsets:
#	187
#	19367
#	39847
#	57047
#	79797
#	102409
#	123702
#	142967
#	161942
#
# Disc length: 2364 seconds
#
# Revision: 4
# Processed by: cddbd v1.5.2PL0 Copyright (c) Steve Scherf et al.
# Submitted via: CDex 1.51
#
DISCID=75093a09
DTITLE=NIGHT RANGER - MIDNIGHT MADNESS
DYEAR=1983
DGENRE=Hard Rock
TTITLE0=(You Can Still) Rock In America
TTITLE1=Rumours In The Air
TTITLE2=Why Does Love Have To Change
TTITLE3=Sister Christian
TTITLE4=Touch Of Madness
TTITLE5=Passion Play
TTITLE6=When You Close Your Eyes
TTITLE7=Chippin' Away
TTITLE8=Let Him Run
EXTD=YEAR: 1983
EXTT0=
EXTT1=
EXTT2=
EXTT3=
EXTT4=
EXTT5=
EXTT6=
EXTT7=
EXTT8=
PLAYORDER=
